<svg width="719" height="575" viewBox="0 0 719 575" fill="none" xmlns="http://www.w3.org/2000/svg">
<path d="M719 505.3H0V505.686H719V505.3Z" fill="#EBEBEB"/>
<path d="M646.956 530.134H599.329V530.52H646.956V530.134Z" fill="#EBEBEB"/>
<path d="M476.294 534.331H463.798V534.717H476.294V534.331Z" fill="#EBEBEB"/>
<path d="M597.892 515.81H570.297V516.195H597.892V515.81Z" fill="#EBEBEB"/>
<path d="M137.545 518.404H75.4373V518.79H137.545V518.404Z" fill="#EBEBEB"/>
<path d="M159.46 518.404H150.357V518.79H159.46V518.404Z" fill="#EBEBEB"/>
<path d="M323.766 524.918H189.054V525.304H323.766V524.918Z" fill="#EBEBEB"/>
<path d="M340.806 436.466H63.1427C60.9675 436.462 58.8827 435.532 57.346 433.88C55.8092 432.228 54.9461 429.988 54.9461 427.654V8.7355C54.965 6.41431 55.8365 4.19486 57.3712 2.55925C58.9059 0.923645 60.9799 0.00397633 63.1427 0H340.806C342.984 0 345.072 0.928476 346.612 2.58117C348.152 4.23387 349.017 6.4754 349.017 8.81267V427.654C349.017 429.991 348.152 432.233 346.612 433.885C345.072 435.538 342.984 436.466 340.806 436.466ZM63.1427 0.308676C61.0629 0.312765 59.0695 1.20239 57.6002 2.78228C56.1308 4.36218 55.3056 6.50324 55.3056 8.7355V427.654C55.3056 429.886 56.1308 432.027 57.6002 433.607C59.0695 435.187 61.0629 436.077 63.1427 436.081H340.806C342.887 436.077 344.882 435.187 346.354 433.608C347.825 432.028 348.654 429.887 348.658 427.654V8.7355C348.654 6.50182 347.825 4.36079 346.354 2.78134C344.882 1.20189 342.887 0.312756 340.806 0.308676H63.1427Z" fill="#EBEBEB"/>
<path d="M651.86 436.466H374.182C372.006 436.462 369.919 435.533 368.38 433.881C366.841 432.229 365.975 429.99 365.971 427.654V8.7355C365.994 6.4129 366.868 4.19347 368.405 2.55829C369.942 0.923106 372.018 0.00393297 374.182 0H651.86C654.02 0.00803249 656.09 0.929496 657.622 2.56467C659.154 4.19984 660.023 6.41697 660.042 8.7355V427.654C660.042 429.986 659.181 432.223 657.647 433.874C656.114 435.526 654.033 436.458 651.86 436.466ZM374.182 0.308676C372.101 0.312756 370.106 1.20189 368.634 2.78134C367.163 4.36079 366.334 6.50182 366.331 8.7355V427.654C366.334 429.887 367.163 432.028 368.634 433.608C370.106 435.187 372.101 436.077 374.182 436.081H651.86C653.941 436.077 655.936 435.187 657.407 433.608C658.879 432.028 659.708 429.887 659.711 427.654V8.7355C659.708 6.50182 658.879 4.36079 657.407 2.78134C655.936 1.20189 653.941 0.312756 651.86 0.308676H374.182Z" fill="#EBEBEB"/>
<path d="M451.59 78.9893H319.366V398.684H451.59V78.9893Z" fill="#EBEBEB"/>
<path d="M446.6 392.697V84.9941L324.355 84.9941V392.697H446.6Z" fill="#FAFAFA"/>
<path d="M386.88 83.4346H384.075V395.675H386.88V83.4346Z" fill="#F5F5F5"/>
<path d="M454.638 74.8213H316.317V89.8692H454.638V74.8213Z" fill="#E0E0E0"/>
<path d="M454.638 91.5381H316.317V93.3284H454.638V91.5381Z" fill="#F5F5F5"/>
<path d="M454.638 95.5801H316.317V97.3704H454.638V95.5801Z" fill="#F5F5F5"/>
<path d="M454.638 99.626H316.317V101.416H454.638V99.626Z" fill="#F5F5F5"/>
<path d="M454.638 103.683H316.317V105.473H454.638V103.683Z" fill="#F5F5F5"/>
<path d="M454.638 107.729H316.317V109.519H454.638V107.729Z" fill="#F5F5F5"/>
<path d="M454.638 111.771H316.317V113.562H454.638V111.771Z" fill="#F5F5F5"/>
<path d="M454.638 115.814H316.317V117.605H454.638V115.814Z" fill="#F5F5F5"/>
<path d="M454.638 119.876H316.317V121.666H454.638V119.876Z" fill="#F5F5F5"/>
<path d="M454.638 123.917H316.317V125.707H454.638V123.917Z" fill="#F5F5F5"/>
<path d="M454.638 127.962H316.317V129.752H454.638V127.962Z" fill="#F5F5F5"/>
<path d="M454.638 132.005H316.317V133.795H454.638V132.005Z" fill="#F5F5F5"/>
<path d="M454.638 136.064H316.317V137.855H454.638V136.064Z" fill="#F5F5F5"/>
<path d="M454.638 140.107H316.317V141.898H454.638V140.107Z" fill="#F5F5F5"/>
<path d="M454.638 144.15H316.317V145.941H454.638V144.15Z" fill="#F5F5F5"/>
<path d="M454.638 148.195H316.317V149.986H454.638V148.195Z" fill="#F5F5F5"/>
<path d="M454.638 152.254H316.317V154.044H454.638V152.254Z" fill="#F5F5F5"/>
<path d="M454.638 156.298H316.317V158.088H454.638V156.298Z" fill="#F5F5F5"/>
<path d="M454.638 160.341H316.317V162.131H454.638V160.341Z" fill="#F5F5F5"/>
<path d="M608.13 78.9893H475.906V398.684H608.13V78.9893Z" fill="#EBEBEB"/>
<path d="M603.14 392.697V84.9941L480.896 84.9941V392.697H603.14Z" fill="#FAFAFA"/>
<path d="M543.42 83.4346H540.616V395.675H543.42V83.4346Z" fill="#F5F5F5"/>
<path d="M611.179 74.8213H472.857V89.8692H611.179V74.8213Z" fill="#E0E0E0"/>
<path d="M611.179 91.5381H472.857V93.3284H611.179V91.5381Z" fill="#F5F5F5"/>
<path d="M611.179 95.5801H472.857V97.3704H611.179V95.5801Z" fill="#F5F5F5"/>
<path d="M611.179 99.626H472.857V101.416H611.179V99.626Z" fill="#F5F5F5"/>
<path d="M611.179 103.683H472.857V105.473H611.179V103.683Z" fill="#F5F5F5"/>
<path d="M611.179 107.729H472.857V109.519H611.179V107.729Z" fill="#F5F5F5"/>
<path d="M611.179 111.771H472.857V113.562H611.179V111.771Z" fill="#F5F5F5"/>
<path d="M611.179 115.814H472.857V117.605H611.179V115.814Z" fill="#F5F5F5"/>
<path d="M611.179 119.876H472.857V121.666H611.179V119.876Z" fill="#F5F5F5"/>
<path d="M611.179 123.917H472.857V125.707H611.179V123.917Z" fill="#F5F5F5"/>
<path d="M611.179 127.962H472.857V129.752H611.179V127.962Z" fill="#F5F5F5"/>
<path d="M611.179 132.005H472.857V133.795H611.179V132.005Z" fill="#F5F5F5"/>
<path d="M611.179 136.064H472.857V137.855H611.179V136.064Z" fill="#F5F5F5"/>
<path d="M611.179 140.107H472.857V141.898H611.179V140.107Z" fill="#F5F5F5"/>
<path d="M611.179 144.15H472.857V145.941H611.179V144.15Z" fill="#F5F5F5"/>
<path d="M611.179 148.195H472.857V149.986H611.179V148.195Z" fill="#F5F5F5"/>
<path d="M611.179 152.254H472.857V154.044H611.179V152.254Z" fill="#F5F5F5"/>
<path d="M611.179 156.298H472.857V158.088H611.179V156.298Z" fill="#F5F5F5"/>
<path d="M611.179 160.341H472.857V162.131H611.179V160.341Z" fill="#F5F5F5"/>
<path d="M269.639 262.56V123.795L103.263 123.795V262.56H269.639Z" fill="#E0E0E0"/>
<path d="M105.564 260.092H267.324V126.281L105.564 126.281L105.564 260.092Z" fill="#EBEBEB"/>
<path d="M184.452 150.449H183.014V169.109H184.452V150.449Z" fill="#E0E0E0"/>
<path d="M144.922 229.176H143.484V168.336H218.303V203.571H216.865V169.879H144.922V229.176Z" fill="#E0E0E0"/>
<path d="M239.657 222.538H238.219V204.341H199.307V221.905H197.869V202.798H239.657V222.538Z" fill="#E0E0E0"/>
<path d="M202.298 143.597H165.183V157.302H202.298V143.597Z" fill="#F5F5F5"/>
<path d="M235.818 176.485H200.443V191.379H235.818V176.485Z" fill="#F5F5F5"/>
<path d="M210.753 214.219H186.451V229.591H210.753V214.219Z" fill="#F5F5F5"/>
<path d="M251.937 216.706H225.924V228.374H251.937V216.706Z" fill="#F5F5F5"/>
<path d="M167.311 179.65H127.119V199.544H167.311V179.65Z" fill="#F5F5F5"/>
<path d="M157.03 221.906H131.361V236.445H157.03V221.906Z" fill="#F5F5F5"/>
<path d="M189.274 169.604L183.732 163.656L178.191 169.604L183.732 175.552L189.274 169.604Z" fill="#F5F5F5"/>
<path d="M223.117 203.562L217.575 197.614L212.034 203.562L217.575 209.51L223.117 203.562Z" fill="#F5F5F5"/>
<path d="M186.451 104.271C199.396 104.271 209.891 93.0079 209.891 79.114C209.891 65.2202 199.396 53.957 186.451 53.957C173.506 53.957 163.012 65.2202 163.012 79.114C163.012 93.0079 173.506 104.271 186.451 104.271Z" fill="#E0E0E0"/>
<path d="M186.451 100.505C197.459 100.505 206.382 90.9279 206.382 79.1138C206.382 67.2998 197.459 57.7227 186.451 57.7227C175.444 57.7227 166.521 67.2998 166.521 79.1138C166.521 90.9279 175.444 100.505 186.451 100.505Z" fill="#F0F0F0"/>
<path d="M187.386 64.4365V79.3918L196.618 73.7894" fill="#F0F0F0"/>
<path d="M187.386 80.9346C187.134 80.9365 186.886 80.8673 186.667 80.734C186.447 80.598 186.265 80.4022 186.139 80.1664C186.013 79.9306 185.947 79.6632 185.948 79.3913V64.436C185.948 64.0266 186.099 63.6341 186.369 63.3446C186.639 63.0552 187.004 62.8926 187.386 62.8926C187.767 62.8926 188.133 63.0552 188.403 63.3446C188.672 63.6341 188.824 64.0266 188.824 64.436V76.783L195.913 72.4769C196.245 72.2723 196.639 72.2175 197.008 72.3246C197.378 72.4316 197.692 72.6919 197.883 73.048C198.074 73.4041 198.125 73.8269 198.025 74.2235C197.925 74.62 197.683 74.9577 197.351 75.1624L188.105 80.7649C187.883 80.8875 187.635 80.946 187.386 80.9346Z" fill="#E0E0E0"/>
<path d="M359.5 575.001C513.484 575.001 638.313 567.179 638.313 557.53C638.313 547.881 513.484 540.059 359.5 540.059C205.515 540.059 80.6858 547.881 80.6858 557.53C80.6858 567.179 205.515 575.001 359.5 575.001Z" fill="#F5F5F5"/>
<path d="M141.6 512.881H140.248C140.248 510.72 141.916 459.712 150.185 451.146C158.684 442.256 168.678 451.007 168.778 451.146L167.901 452.273C167.542 451.933 158.755 444.278 151.134 452.273C143.254 460.314 141.614 512.403 141.6 512.881Z" fill="#044B9A"/>
<path d="M140.924 523.112L139.572 522.973C139.572 522.356 144.907 461.053 124.214 435.572L125.25 434.615C146.316 460.575 140.924 522.495 140.924 523.112Z" fill="#044B9A"/>
<path d="M141.586 516.571C141.399 513.669 137.416 445.576 153.32 429.849L154.241 430.914C138.811 446.147 142.895 515.799 142.938 516.478L141.586 516.571Z" fill="#044B9A"/>
<path d="M139.572 516.524C139.572 516.061 139.069 470.223 127.766 463.324C126.803 462.646 125.702 462.225 124.556 462.099C123.41 461.973 122.252 462.144 121.18 462.599C114.537 465.531 111.014 479.128 110.985 479.267L109.676 478.881C109.82 478.295 113.401 464.466 120.663 461.24C121.926 460.7 123.292 460.492 124.645 460.634C125.999 460.777 127.301 461.265 128.442 462.058C140.421 469.42 140.91 514.533 140.924 516.509L139.572 516.524Z" fill="#044B9A"/>
<path d="M144.217 516.57C144.145 515.027 142.391 480.378 151.565 467.537C153.995 464.126 156.699 462.49 159.632 462.722C166.146 463.216 171.136 472.692 171.424 473.093L170.23 473.803C170.23 473.711 165.327 464.543 159.546 464.173C157.101 463.987 154.772 465.423 152.644 468.417C143.771 480.841 145.554 516.123 145.583 516.478L144.217 516.57Z" fill="#044B9A"/>
<path d="M142.361 521.371L141.01 521.263C141.01 520.429 146.762 437.72 137.285 423.937L138.378 423.058C148.2 437.288 142.635 517.944 142.361 521.371Z" fill="#044B9A"/>
<path d="M118.017 469.483C118.017 469.483 123.898 471.798 122.144 477.292C120.389 482.787 101.839 491.8 101.839 491.8C101.839 491.8 94.0595 484.083 101.192 471.736C108.324 459.389 117.916 465.547 118.017 469.483Z" fill="#044B9A"/>
<path opacity="0.4" d="M118.017 469.483C118.017 469.483 123.898 471.798 122.144 477.292C120.389 482.787 101.839 491.8 101.839 491.8C101.839 491.8 94.0595 484.083 101.192 471.736C108.324 459.389 117.916 465.547 118.017 469.483Z" fill="white"/>
<path d="M143.541 459.033C143.541 459.033 137.286 458.755 136.941 464.543C136.595 470.331 150.486 486.32 150.486 486.32C150.486 486.32 160.394 482.477 158.266 468.047C156.138 453.616 145.094 455.484 143.541 459.033Z" fill="#044B9A"/>
<path opacity="0.4" d="M143.541 459.033C143.541 459.033 137.286 458.755 136.941 464.543C136.595 470.331 150.486 486.32 150.486 486.32C150.486 486.32 160.394 482.477 158.266 468.047C156.138 453.616 145.094 455.484 143.541 459.033Z" fill="white"/>
<path d="M148.833 431.36C148.833 431.36 144.663 430.866 145.008 428.15C145.353 425.433 161.214 418.411 170.576 429.693C170.576 429.693 164.579 440.744 155.908 440.883C147.237 441.021 148.833 431.36 148.833 431.36Z" fill="#044B9A"/>
<path opacity="0.4" d="M148.833 431.36C148.833 431.36 144.663 430.866 145.008 428.15C145.353 425.433 161.214 418.411 170.576 429.693C170.576 429.693 164.579 440.744 155.908 440.883C147.237 441.021 148.833 431.36 148.833 431.36Z" fill="white"/>
<path d="M141.067 424.739C141.067 424.739 144.849 426.699 145.899 424.199C146.949 421.699 136.955 406.728 123.409 411.034C123.409 411.034 123.049 423.828 130.34 428.86C137.63 433.891 141.067 424.739 141.067 424.739Z" fill="#044B9A"/>
<path opacity="0.4" d="M141.067 424.739C141.067 424.739 144.849 426.699 145.899 424.199C146.949 421.699 136.955 406.728 123.409 411.034C123.409 411.034 123.049 423.828 130.34 428.86C137.63 433.891 141.067 424.739 141.067 424.739Z" fill="white"/>
<path d="M160.811 467.275C160.811 467.275 157.935 464.774 161.027 463.571C164.119 462.367 179.376 462.691 179.534 478.896C179.534 478.896 161.789 481.983 159.589 475.81C157.389 469.636 160.811 467.275 160.811 467.275Z" fill="#044B9A"/>
<path opacity="0.4" d="M160.811 467.275C160.811 467.275 157.935 464.774 161.027 463.571C164.119 462.367 179.376 462.691 179.534 478.896C179.534 478.896 161.789 481.983 159.589 475.81C157.389 469.636 160.811 467.275 160.811 467.275Z" fill="white"/>
<path d="M124.631 430.944C124.631 430.944 127.507 428.459 124.401 427.24C121.295 426.02 106.052 426.36 105.894 442.565C105.894 442.565 123.639 445.729 125.839 439.556C128.039 433.382 124.631 430.944 124.631 430.944Z" fill="#044B9A"/>
<path opacity="0.4" d="M124.631 430.944C124.631 430.944 127.507 428.459 124.401 427.24C121.295 426.02 106.052 426.36 105.894 442.565C105.894 442.565 123.639 445.729 125.839 439.556C128.039 433.382 124.631 430.944 124.631 430.944Z" fill="white"/>
<path d="M134.007 444.001C134.007 444.001 134.252 440.914 131.98 442.149C129.707 443.384 121.755 452.536 129.995 461.256C129.995 461.256 141.068 452.459 139.069 447.859C137.07 443.26 134.007 444.001 134.007 444.001Z" fill="#044B9A"/>
<path opacity="0.4" d="M134.007 444.001C134.007 444.001 134.252 440.914 131.98 442.149C129.707 443.384 121.755 452.536 129.995 461.256C129.995 461.256 141.068 452.459 139.069 447.859C137.07 443.26 134.007 444.001 134.007 444.001Z" fill="white"/>
<path d="M163.371 448.309C163.371 448.309 161.66 445.902 164.176 445.593C166.693 445.284 177.981 448.525 175.35 460.625C175.35 460.625 161.602 459.514 160.97 454.452C160.337 449.39 163.371 448.309 163.371 448.309Z" fill="#044B9A"/>
<path opacity="0.4" d="M163.371 448.309C163.371 448.309 161.66 445.902 164.176 445.593C166.693 445.284 177.981 448.525 175.35 460.625C175.35 460.625 161.602 459.514 160.97 454.452C160.337 449.39 163.371 448.309 163.371 448.309Z" fill="white"/>
<path d="M119.038 561.42H163.501L169.411 515.011H113.142L119.038 561.42Z" fill="#263238"/>
<path opacity="0.2" d="M119.038 561.42H163.501L169.411 515.011H113.142L119.038 561.42Z" fill="white"/>
<path d="M174.976 511.263V515.661C174.978 516.363 174.85 517.058 174.601 517.707C174.352 518.356 173.985 518.946 173.523 519.442C173.06 519.938 172.511 520.331 171.907 520.599C171.302 520.867 170.654 521.003 170 521.001H111.977C111.323 521.003 110.675 520.867 110.071 520.599C109.466 520.331 108.917 519.938 108.455 519.442C107.992 518.946 107.626 518.356 107.376 517.707C107.127 517.058 107 516.363 107.002 515.661V511.263H174.976Z" fill="#263238"/>
<path d="M535.468 520.548C535.144 519.836 534.986 519.05 535.006 518.258C535.027 517.466 535.226 516.691 535.586 515.999C535.946 515.308 536.457 514.72 537.075 514.287C537.693 513.853 538.4 513.587 539.135 513.51C538.5 511.486 538.456 509.302 539.009 507.25C539.561 505.198 540.684 503.376 542.227 502.027C542.602 501.666 543.076 501.444 543.578 501.395C544.112 501.452 544.616 501.69 545.016 502.074L553.644 508.679C554.331 509.128 554.911 509.741 555.341 510.47C557.095 514.112 550.783 518.773 553.371 521.782C554.119 522.647 555.327 522.817 556.247 523.449C558.289 524.808 558.533 527.817 559.483 530.178C560.432 532.54 563.797 534.392 565.019 532.2C564.084 529.932 566.903 527.971 569.203 527.678C571.504 527.385 573.906 527.262 575.171 524.946C578.435 528.033 585.74 519.467 585.568 516.026C588.257 516.242 590.083 518.943 590.673 521.628C591.045 524.47 591.136 527.347 590.946 530.209C591.032 535.781 592.7 541.244 592.614 546.816C592.542 551.153 590.975 555.968 587.279 557.712C585.435 558.41 583.477 558.693 581.527 558.546L539.394 558.252C538.382 558.321 537.369 558.142 536.431 557.728C534.533 556.663 534.131 553.977 533.958 551.678C533.21 541.862 532.458 532.041 531.7 522.215L535.468 520.548Z" fill="#044B9A"/>
<path opacity="0.3" d="M535.468 520.548C535.144 519.836 534.986 519.05 535.006 518.258C535.027 517.466 535.226 516.691 535.586 515.999C535.946 515.308 536.457 514.72 537.075 514.287C537.693 513.853 538.4 513.587 539.135 513.51C538.5 511.486 538.456 509.302 539.009 507.25C539.561 505.198 540.684 503.376 542.227 502.027C542.602 501.666 543.076 501.444 543.578 501.395C544.112 501.452 544.616 501.69 545.016 502.074L553.644 508.679C554.331 509.128 554.911 509.741 555.341 510.47C557.095 514.112 550.783 518.773 553.371 521.782C554.119 522.647 555.327 522.817 556.247 523.449C558.289 524.808 558.533 527.817 559.483 530.178C560.432 532.54 563.797 534.392 565.019 532.2C564.084 529.932 566.903 527.971 569.203 527.678C571.504 527.385 573.906 527.262 575.171 524.946C578.435 528.033 585.74 519.467 585.568 516.026C588.257 516.242 590.083 518.943 590.673 521.628C591.045 524.47 591.136 527.347 590.946 530.209C591.032 535.781 592.7 541.244 592.614 546.816C592.542 551.153 590.975 555.968 587.279 557.712C585.435 558.41 583.477 558.693 581.527 558.546L539.394 558.252C538.382 558.321 537.369 558.142 536.431 557.728C534.533 556.663 534.131 553.977 533.958 551.678C533.21 541.862 532.458 532.041 531.7 522.215L535.468 520.548Z" fill="white"/>
<path d="M525.646 472.766L526.193 479.85L526.567 484.912L527.559 498.092L528.12 505.639L528.896 515.718L529.184 520.116L529.27 521.397L529.658 526.46L530.176 533.436L530.507 537.742L530.838 542.109L531.226 547.187L531.513 551.061L531.844 555.367L532.06 557.157H592.053L592.197 555.274L592.456 550.984L592.743 547.141L593.132 542.063L593.477 537.68L593.793 533.374L594.311 526.413L594.699 521.336L594.814 520.055L595.13 515.733L595.878 505.655L596.453 498.092L597.446 484.927L597.834 479.865L598.366 472.781H525.646V472.766ZM528.968 476.053H530.334L529.069 477.411L528.968 476.053ZM534.72 476.053H536.158L542.169 482.504L535.453 489.696L529.601 483.43L529.486 481.702L534.72 476.053ZM530.794 499.343L535.425 494.373L542.126 501.596L535.41 508.803L531.096 504.173L530.794 499.343ZM592.973 504.158L588.659 508.788L581.944 501.596L588.645 494.419L593.29 499.389L592.973 504.158ZM544.312 484.819L551.013 492.027L544.312 499.234L537.596 492.027L544.312 484.819ZM544.312 480.189L540.472 476.068H548.151L544.312 480.189ZM553.184 494.388L559.899 501.565L553.184 508.773L546.44 501.596L553.184 494.388ZM562.056 518.295L555.37 511.103L562.056 503.911L568.772 511.103L562.056 518.295ZM570.943 513.434L577.644 520.641L570.886 527.833L564.17 520.626L570.943 513.434ZM559.899 520.626L553.127 527.833L546.44 520.626L553.141 513.418L559.899 520.626ZM555.37 492.042L562.056 484.835L568.772 492.042L562.056 499.25L555.37 492.042ZM570.886 494.373L577.587 501.55L570.886 508.757L564.185 501.596L570.886 494.373ZM573.057 492.027L579.773 484.819L586.474 492.027L579.773 499.234L573.057 492.027ZM586.474 511.088L579.773 518.28L573.057 511.088L579.773 503.895L586.474 511.088ZM579.773 522.956L586.474 530.148L579.773 537.34L573.057 530.148L579.773 522.956ZM577.587 539.686L570.886 546.878L564.185 539.686L570.886 532.463L577.587 539.686ZM561.999 537.34L555.312 530.148L561.999 522.956L568.714 530.148L561.999 537.34ZM559.842 539.686L553.127 546.878L546.44 539.686L553.141 532.479L559.842 539.686ZM550.955 549.209L546.641 553.839H541.91L537.596 549.209L544.312 542.001L550.955 549.209ZM544.254 537.34L537.539 530.148L544.254 522.956L550.955 530.148L544.254 537.34ZM544.254 518.28L537.539 511.088L544.254 503.895L550.955 511.088L544.254 518.28ZM552.422 476.053H553.86L559.871 482.504L553.155 489.696L546.44 482.504L552.422 476.053ZM558.174 476.053H565.838L561.999 480.174L558.174 476.053ZM570.167 476.053H571.605L577.601 482.504L570.886 489.696L564.185 482.504L570.167 476.053ZM583.598 476.053L579.773 480.174L575.933 476.053H583.598ZM589.35 476.053L594.613 481.702L594.483 483.43L588.645 489.696L581.944 482.504L587.94 476.053H589.35ZM595.102 476.053L594.987 477.396L593.75 476.053H595.102ZM593.664 495.021L590.874 492.027L594.153 488.508L593.664 495.021ZM592.326 512.646L590.888 511.103L592.614 509.251L592.341 512.662L592.326 512.646ZM591.406 524.916L588.645 527.833L581.944 520.641L588.645 513.434L591.953 516.999L591.406 524.916ZM591.018 530.303L590.874 530.148L591.032 529.994V530.303H591.018ZM589.839 545.644L588.703 546.863L582.002 539.686L588.703 532.479L590.687 534.609L589.839 545.644ZM586.531 553.87L588.703 551.539L589.35 552.219L589.235 553.87H586.531ZM582.217 553.87H577.486L573.172 549.24L579.888 542.032L586.589 549.24L582.217 553.87ZM568.786 553.87L570.972 551.539L573.143 553.87H568.786ZM559.727 553.87L555.413 549.24L562.1 542.032L568.815 549.24L564.501 553.87H559.727ZM551.027 553.87L553.213 551.539L555.399 553.87H551.027ZM534.806 552.219L535.453 551.539L537.639 553.87H534.936L534.806 552.219ZM533.483 534.609L535.367 532.463L542.083 539.671L535.367 546.848L534.217 545.628L533.483 534.609ZM533.124 529.979L533.296 530.148L533.153 530.303V529.979H533.124ZM532.06 517.03L535.367 513.464L542.083 520.672L535.367 527.833L532.649 524.932L532.06 517.03ZM531.47 509.313L533.21 511.165L531.772 512.708L531.47 509.313ZM529.903 488.477L533.21 492.027L530.334 495.114L529.845 488.539L529.903 488.477Z" fill="#044B9A"/>
<g opacity="0.6">
<path d="M525.646 472.766L526.193 479.85L526.567 484.912L527.559 498.092L528.12 505.639L528.896 515.718L529.184 520.116L529.27 521.397L529.658 526.46L530.176 533.436L530.507 537.742L530.838 542.109L531.226 547.187L531.513 551.061L531.844 555.367L532.06 557.157H592.053L592.197 555.274L592.456 550.984L592.743 547.141L593.132 542.063L593.477 537.68L593.793 533.374L594.311 526.413L594.699 521.336L594.814 520.055L595.13 515.733L595.878 505.655L596.453 498.092L597.446 484.927L597.834 479.865L598.366 472.781H525.646V472.766ZM528.968 476.053H530.334L529.069 477.411L528.968 476.053ZM534.72 476.053H536.158L542.169 482.504L535.453 489.696L529.601 483.43L529.486 481.702L534.72 476.053ZM530.794 499.343L535.425 494.373L542.126 501.596L535.41 508.803L531.096 504.173L530.794 499.343ZM592.973 504.158L588.659 508.788L581.944 501.596L588.645 494.419L593.29 499.389L592.973 504.158ZM544.312 484.819L551.013 492.027L544.312 499.234L537.596 492.027L544.312 484.819ZM544.312 480.189L540.472 476.068H548.151L544.312 480.189ZM553.184 494.388L559.899 501.565L553.184 508.773L546.44 501.596L553.184 494.388ZM562.056 518.295L555.37 511.103L562.056 503.911L568.772 511.103L562.056 518.295ZM570.943 513.434L577.644 520.641L570.886 527.833L564.17 520.626L570.943 513.434ZM559.899 520.626L553.127 527.833L546.44 520.626L553.141 513.418L559.899 520.626ZM555.37 492.042L562.056 484.835L568.772 492.042L562.056 499.25L555.37 492.042ZM570.886 494.373L577.587 501.55L570.886 508.757L564.185 501.596L570.886 494.373ZM573.057 492.027L579.773 484.819L586.474 492.027L579.773 499.234L573.057 492.027ZM586.474 511.088L579.773 518.28L573.057 511.088L579.773 503.895L586.474 511.088ZM579.773 522.956L586.474 530.148L579.773 537.34L573.057 530.148L579.773 522.956ZM577.587 539.686L570.886 546.878L564.185 539.686L570.886 532.463L577.587 539.686ZM561.999 537.34L555.312 530.148L561.999 522.956L568.714 530.148L561.999 537.34ZM559.842 539.686L553.127 546.878L546.44 539.686L553.141 532.479L559.842 539.686ZM550.955 549.209L546.641 553.839H541.91L537.596 549.209L544.312 542.001L550.955 549.209ZM544.254 537.34L537.539 530.148L544.254 522.956L550.955 530.148L544.254 537.34ZM544.254 518.28L537.539 511.088L544.254 503.895L550.955 511.088L544.254 518.28ZM552.422 476.053H553.86L559.871 482.504L553.155 489.696L546.44 482.504L552.422 476.053ZM558.174 476.053H565.838L561.999 480.174L558.174 476.053ZM570.167 476.053H571.605L577.601 482.504L570.886 489.696L564.185 482.504L570.167 476.053ZM583.598 476.053L579.773 480.174L575.933 476.053H583.598ZM589.35 476.053L594.613 481.702L594.483 483.43L588.645 489.696L581.944 482.504L587.94 476.053H589.35ZM595.102 476.053L594.987 477.396L593.75 476.053H595.102ZM593.664 495.021L590.874 492.027L594.153 488.508L593.664 495.021ZM592.326 512.646L590.888 511.103L592.614 509.251L592.341 512.662L592.326 512.646ZM591.406 524.916L588.645 527.833L581.944 520.641L588.645 513.434L591.953 516.999L591.406 524.916ZM591.018 530.303L590.874 530.148L591.032 529.994V530.303H591.018ZM589.839 545.644L588.703 546.863L582.002 539.686L588.703 532.479L590.687 534.609L589.839 545.644ZM586.531 553.87L588.703 551.539L589.35 552.219L589.235 553.87H586.531ZM582.217 553.87H577.486L573.172 549.24L579.888 542.032L586.589 549.24L582.217 553.87ZM568.786 553.87L570.972 551.539L573.143 553.87H568.786ZM559.727 553.87L555.413 549.24L562.1 542.032L568.815 549.24L564.501 553.87H559.727ZM551.027 553.87L553.213 551.539L555.399 553.87H551.027ZM534.806 552.219L535.453 551.539L537.639 553.87H534.936L534.806 552.219ZM533.483 534.609L535.367 532.463L542.083 539.671L535.367 546.848L534.217 545.628L533.483 534.609ZM533.124 529.979L533.296 530.148L533.153 530.303V529.979H533.124ZM532.06 517.03L535.367 513.464L542.083 520.672L535.367 527.833L532.649 524.932L532.06 517.03ZM531.47 509.313L533.21 511.165L531.772 512.708L531.47 509.313ZM529.903 488.477L533.21 492.027L530.334 495.114L529.845 488.539L529.903 488.477Z" fill="white"/>
</g>
<path d="M600.193 469.818H523.821C522.518 469.818 521.462 470.952 521.462 472.349V476.47C521.462 477.868 522.518 479.001 523.821 479.001H600.193C601.495 479.001 602.551 477.868 602.551 476.47V472.349C602.551 470.952 601.495 469.818 600.193 469.818Z" fill="#044B9A"/>
<path d="M529.658 561.419H594.34C595.642 561.419 596.698 560.286 596.698 558.888V554.767C596.698 553.369 595.642 552.236 594.34 552.236H529.658C528.356 552.236 527.3 553.369 527.3 554.767V558.888C527.3 560.286 528.356 561.419 529.658 561.419Z" fill="#044B9A"/>
<path d="M325.793 93.6982H277.663C273.274 93.6982 269.064 95.5698 265.96 98.9013C262.856 102.233 261.112 106.751 261.112 111.462V161.653C261.112 166.364 262.856 170.883 265.96 174.214C269.064 177.546 273.274 179.417 277.663 179.417H284.206V198.169L295.293 179.417H325.75C330.14 179.417 334.35 177.546 337.454 174.214C340.558 170.883 342.301 166.364 342.301 161.653V111.462C342.301 106.759 340.564 102.248 337.469 98.9176C334.374 95.5875 330.175 93.7105 325.793 93.6982Z" fill="#044B9A"/>
<path opacity="0.4" d="M325.793 93.6982H277.663C273.274 93.6982 269.064 95.5698 265.96 98.9013C262.856 102.233 261.112 106.751 261.112 111.462V161.653C261.112 166.364 262.856 170.883 265.96 174.214C269.064 177.546 273.274 179.417 277.663 179.417H284.206V198.169L295.293 179.417H325.75C330.14 179.417 334.35 177.546 337.454 174.214C340.558 170.883 342.301 166.364 342.301 161.653V111.462C342.301 106.759 340.564 102.248 337.469 98.9176C334.374 95.5875 330.175 93.7105 325.793 93.6982Z" fill="white"/>
<path d="M309.688 128.347C309.688 124.566 306.682 122.019 301.851 122.019C299.882 121.899 297.917 122.309 296.134 123.212C294.35 124.115 292.806 125.482 291.641 127.19L285.558 122.961C289.067 117.837 294.704 114.75 302.541 114.75C311.759 114.75 317.913 119.257 317.913 126.989C317.913 137.962 307.186 138.966 307.186 146.914H299.219C299.219 136.959 309.688 135.076 309.688 128.347ZM298.184 157.748C298.164 156.686 298.439 155.64 298.974 154.746C299.51 153.851 300.281 153.148 301.19 152.726C302.099 152.303 303.105 152.181 304.079 152.374C305.053 152.567 305.951 153.067 306.66 153.81C307.368 154.553 307.855 155.505 308.057 156.546C308.26 157.586 308.169 158.668 307.797 159.653C307.424 160.639 306.787 161.483 305.967 162.078C305.146 162.673 304.179 162.993 303.188 162.996C302.536 163.021 301.887 162.903 301.279 162.65C300.671 162.396 300.118 162.012 299.653 161.52C299.189 161.029 298.823 160.441 298.577 159.792C298.332 159.144 298.213 158.448 298.227 157.748H298.184Z" fill="white"/>
<path d="M205.418 331.997C205.418 331.997 209.473 419.151 226.988 434.153H208.294C208.294 434.153 191.613 404.459 190.362 331.997H205.418Z" fill="#263238"/>
<path opacity="0.2" d="M205.418 331.997C205.418 331.997 209.473 419.151 226.988 434.153H208.294C208.294 434.153 191.613 404.459 190.362 331.997H205.418Z" fill="white"/>
<path d="M191.369 344.282H209.071C214.262 344.282 218.015 339.282 217.44 333.108L216.692 324.866C216.117 318.693 211.458 313.692 206.267 313.692H188.565C183.374 313.692 179.635 318.708 180.196 324.866L180.958 333.108C181.519 339.282 186.178 344.282 191.369 344.282Z" fill="#263238"/>
<path d="M188.623 351.071H218.576C227.348 351.071 233.69 342.598 232.726 332.165L231.446 318.275C230.497 307.826 222.603 299.368 213.831 299.368H183.877C175.091 299.368 168.764 307.826 169.713 318.275L170.993 332.165C171.956 342.629 179.851 351.071 188.623 351.071Z" fill="#263238"/>
<path opacity="0.5" d="M188.623 351.071H218.576C227.348 351.071 233.69 342.598 232.726 332.165L231.446 318.275C230.497 307.826 222.603 299.368 213.831 299.368H183.877C175.091 299.368 168.764 307.826 169.713 318.275L170.993 332.165C171.956 342.629 179.851 351.071 188.623 351.071Z" fill="white"/>
<path d="M203.319 425.245H287.399C288.247 425.245 289.086 425.424 289.87 425.773C290.653 426.121 291.365 426.631 291.964 427.275C292.564 427.918 293.04 428.682 293.364 429.523C293.688 430.364 293.855 431.265 293.855 432.175V439.691H196.862V432.144C196.87 430.311 197.554 428.557 198.764 427.264C199.974 425.971 201.612 425.245 203.319 425.245Z" fill="#263238"/>
<path opacity="0.5" d="M203.319 425.245H287.399C288.247 425.245 289.086 425.424 289.87 425.773C290.653 426.121 291.365 426.631 291.964 427.275C292.564 427.918 293.04 428.682 293.364 429.523C293.688 430.364 293.855 431.265 293.855 432.175V439.691H196.862V432.144C196.87 430.311 197.554 428.557 198.764 427.264C199.974 425.971 201.612 425.245 203.319 425.245Z" fill="white"/>
<path d="M200.241 533.314L237.629 529.811V477.104H250.773V529.795L288.305 533.314C289.887 533.501 291.35 534.308 292.411 535.581C293.473 536.855 294.059 538.504 294.057 540.213V545.553H194.403V540.182C194.413 538.465 195.016 536.813 196.094 535.545C197.172 534.277 198.649 533.482 200.241 533.314Z" fill="#263238"/>
<path d="M282.035 552.19C282.035 554.021 282.541 555.812 283.489 557.335C284.437 558.858 285.784 560.044 287.361 560.745C288.938 561.446 290.672 561.63 292.346 561.272C294.02 560.915 295.557 560.033 296.764 558.738C297.97 557.443 298.792 555.793 299.125 553.997C299.458 552.2 299.287 550.338 298.634 548.646C297.981 546.954 296.875 545.508 295.456 544.49C294.037 543.473 292.369 542.93 290.663 542.93C288.375 542.93 286.18 543.905 284.562 545.642C282.944 547.379 282.035 549.734 282.035 552.19Z" fill="#263238"/>
<path d="M206.512 552.19C206.512 554.021 206.005 555.812 205.057 557.335C204.109 558.858 202.762 560.044 201.185 560.745C199.609 561.446 197.874 561.63 196.2 561.272C194.527 560.915 192.989 560.033 191.783 558.738C190.576 557.443 189.754 555.793 189.421 553.997C189.088 552.2 189.259 550.338 189.912 548.646C190.565 546.954 191.671 545.508 193.09 544.49C194.509 543.473 196.177 542.93 197.884 542.93C200.172 542.93 202.366 543.905 203.984 545.642C205.602 547.379 206.512 549.734 206.512 552.19Z" fill="#263238"/>
<path d="M247.71 487.848H240.721C240.02 487.848 239.327 487.7 238.679 487.412C238.032 487.124 237.444 486.702 236.949 486.171C236.453 485.639 236.06 485.008 235.792 484.313C235.524 483.618 235.386 482.874 235.386 482.122V436.253H253.045V482.122C253.045 483.64 252.483 485.097 251.482 486.171C250.482 487.244 249.125 487.848 247.71 487.848Z" fill="#263238"/>
<path opacity="0.2" d="M247.71 487.848H240.721C240.02 487.848 239.327 487.7 238.679 487.412C238.032 487.124 237.444 486.702 236.949 486.171C236.453 485.639 236.06 485.008 235.792 484.313C235.524 483.618 235.386 482.874 235.386 482.122V436.253H253.045V482.122C253.045 483.64 252.483 485.097 251.482 486.171C250.482 487.244 249.125 487.848 247.71 487.848Z" fill="white"/>
<path d="M294.948 434.15H195.769C194.332 434.15 193.167 435.401 193.167 436.944V438.58C193.167 440.123 194.332 441.373 195.769 441.373H294.948C296.386 441.373 297.551 440.123 297.551 438.58V436.944C297.551 435.401 296.386 434.15 294.948 434.15Z" fill="#263238"/>
<path opacity="0.2" d="M282.035 552.19C282.035 554.021 282.541 555.812 283.489 557.335C284.437 558.858 285.784 560.044 287.361 560.745C288.938 561.446 290.672 561.63 292.346 561.272C294.02 560.915 295.557 560.033 296.764 558.738C297.97 557.443 298.792 555.793 299.125 553.997C299.458 552.2 299.287 550.338 298.634 548.646C297.981 546.954 296.875 545.508 295.456 544.49C294.037 543.473 292.369 542.93 290.663 542.93C288.375 542.93 286.18 543.905 284.562 545.642C282.944 547.379 282.035 549.734 282.035 552.19Z" fill="white"/>
<path opacity="0.2" d="M206.512 552.19C206.512 554.021 206.005 555.812 205.057 557.335C204.109 558.858 202.762 560.044 201.185 560.745C199.609 561.446 197.874 561.63 196.2 561.272C194.527 560.915 192.989 560.033 191.783 558.738C190.576 557.443 189.754 555.793 189.421 553.997C189.088 552.2 189.259 550.338 189.912 548.646C190.565 546.954 191.671 545.508 193.09 544.49C194.509 543.473 196.177 542.93 197.884 542.93C200.172 542.93 202.366 543.905 203.984 545.642C205.602 547.379 206.512 549.734 206.512 552.19Z" fill="white"/>
<path d="M209.948 216.859C209.948 216.859 212.464 208.186 223.019 206.611C233.574 205.037 246.43 208.849 249.047 213.572C251.664 218.295 249.651 222.94 253.174 224.499C256.697 226.058 261.716 229.901 260.738 233.759C259.76 237.618 256.208 245.443 260.12 246.971C264.031 248.499 266.49 254.688 264.779 257.774C263.068 260.861 262.449 264.689 264.405 265.769C266.361 266.849 268.719 268.964 267.094 272.174C265.469 275.384 263.916 275.832 266.361 278.564C268.805 281.295 264.577 287.438 264.577 287.438C264.577 287.438 208.122 294.646 201.305 288.302C194.489 281.959 198.731 276.357 200.198 274.69C201.665 273.023 198.027 273.671 197.524 267.374C197.02 261.077 200.572 260.151 201.305 256.462C202.039 252.774 198.429 249.239 200.817 245.659C203.204 242.078 203.966 240.072 202.255 236.306C200.543 232.54 200.256 217.122 209.948 216.859Z" fill="#263238"/>
<path d="M306.826 278.627L319.337 276.837L311.686 264.243C311.686 264.243 300.484 269.244 301.85 275.309L306.826 278.627Z" fill="#E4897B"/>
<path d="M329.072 268.394L319.063 259.967L311.686 264.242L319.337 276.836L329.072 268.394Z" fill="#E4897B"/>
<path d="M309.846 278.732C309.846 278.732 295.466 333.106 284.178 329.818C277.937 327.997 271.94 321.546 267.166 314.847C263.175 309.145 259.667 303.071 256.683 296.697V296.497L255.245 270.691C266.418 273.639 282.797 305.942 282.797 305.942L300.887 274.071L309.846 278.732Z" fill="#044B9A"/>
<path opacity="0.7" d="M253.088 307.517C242.678 297.439 231.132 288.801 218.72 281.804C219.861 281.65 221.011 281.526 222.171 281.434C230.051 280.539 237.98 280.25 245.898 280.569C247.868 280.693 249.881 280.863 251.866 281.048C256.827 293.132 253.088 307.517 253.088 307.517Z" fill="white"/>
<path d="M218.777 361.674C217.699 348.632 213.342 324.71 205.835 299.584C203.391 291.419 207.532 282.205 207.532 282.205C207.532 282.205 217.728 281.912 218.763 281.804C219.798 281.696 221.049 281.526 222.214 281.434C230.094 280.539 238.023 280.25 245.941 280.569C247.911 280.693 249.924 280.863 251.909 281.048C252.541 281.048 259.717 281.187 260.335 281.248C260.335 281.248 270.272 293.441 270.876 303.319C271.609 310.911 271.883 318.546 271.696 326.176C271.696 335.143 271.034 346.965 270.488 359.559L218.777 361.674Z" fill="#044B9A"/>
<path opacity="0.8" d="M218.777 361.674C217.699 348.632 213.342 324.71 205.835 299.584C203.391 291.419 207.532 282.205 207.532 282.205C207.532 282.205 217.728 281.912 218.763 281.804C219.798 281.696 221.049 281.526 222.214 281.434C230.094 280.539 238.023 280.25 245.941 280.569C247.911 280.693 249.924 280.863 251.909 281.048C252.541 281.048 259.717 281.187 260.335 281.248C260.335 281.248 270.272 293.441 270.876 303.319C271.609 310.911 271.883 318.546 271.696 326.176C271.696 335.143 271.034 346.965 270.488 359.559L218.777 361.674Z" fill="white"/>
<path d="M218.777 361.675L270.545 357.925C270.545 357.925 272.098 374.624 271.739 374.377C271.379 374.13 216.304 376.461 216.304 376.461L218.777 361.675Z" fill="#263238"/>
<path d="M219.252 362.603L270.502 359.562V364.779L218.777 367.727L219.252 362.603Z" fill="black"/>
<path d="M248.098 366.907C247.74 366.909 247.394 366.768 247.129 366.511C246.863 366.254 246.696 365.9 246.66 365.518L246.43 362.432C246.409 362.034 246.533 361.644 246.774 361.342C247.015 361.041 247.355 360.85 247.724 360.811L253.332 360.348C253.525 360.334 253.719 360.363 253.902 360.432C254.085 360.501 254.253 360.609 254.396 360.749C254.535 360.891 254.645 361.061 254.722 361.249C254.799 361.437 254.839 361.64 254.842 361.845V365.071C254.843 365.46 254.708 365.834 254.462 366.121C254.217 366.407 253.88 366.583 253.519 366.614L248.127 366.923L248.098 366.907ZM253.49 361.274L247.868 361.737C247.793 361.743 247.719 361.765 247.652 361.801C247.585 361.838 247.526 361.889 247.478 361.951C247.429 362.013 247.393 362.085 247.371 362.162C247.349 362.239 247.342 362.32 247.35 362.401L247.58 365.487C247.582 365.567 247.599 365.645 247.63 365.716C247.661 365.788 247.706 365.852 247.761 365.904C247.816 365.957 247.881 365.996 247.952 366.02C248.022 366.044 248.096 366.052 248.17 366.043L253.562 365.734C253.706 365.726 253.841 365.66 253.94 365.548C254.039 365.435 254.094 365.287 254.094 365.132V361.907C254.095 361.824 254.08 361.741 254.051 361.664C254.021 361.587 253.977 361.517 253.922 361.459C253.866 361.397 253.799 361.348 253.725 361.316C253.65 361.284 253.57 361.27 253.49 361.274Z" fill="white"/>
<path d="M273.709 370.933C259.947 369.467 242.073 368.278 218.777 367.723C218.777 367.723 201.421 411.601 221.998 424.704C228.225 428.67 238.492 430.245 249.795 430.492C252.907 430.57 256.002 429.98 258.899 428.756C261.795 427.533 264.435 425.701 266.662 423.367C268.89 421.034 270.661 418.246 271.871 415.168C273.081 412.09 273.706 408.784 273.709 405.443V370.933Z" fill="#263238"/>
<path d="M222.976 399.874L205.087 396.386L215.498 355.054C215.498 355.054 212.824 344.791 209.948 333.03C209.214 330.067 208.51 327.027 207.733 324.017C206.957 321.007 206.382 318.415 205.778 315.806C204.373 310.428 203.269 304.965 202.47 299.447C202.139 292.856 201.118 275.03 207.014 272.237C210.509 270.57 217.67 274.506 222.2 275.416C228.998 289.411 232.722 304.89 233.085 320.668C233.804 347.384 222.976 399.874 222.976 399.874Z" fill="#044B9A"/>
<path d="M239.973 276.031C239.973 276.031 256.683 278.269 263.801 316.467C266.677 331.901 273.522 398.004 273.522 398.004L277.405 395.92L272.012 356.518C272.012 356.518 273.953 310.865 272.443 301.497C270.934 292.128 263.283 271.818 255.317 270.629C252.081 270.228 239.973 276.031 239.973 276.031Z" fill="#044B9A"/>
<path d="M240.75 275.491L241.584 274.72C251.245 276.129 260.052 281.411 266.231 289.505L262.349 293.58L268.906 299.414L265.743 330.683C265.743 330.683 255.677 293.796 251.262 284.937C251.291 284.86 243.971 277.189 240.75 275.491Z" fill="#044B9A"/>
<path opacity="0.2" d="M240.75 275.492L241.527 274.812C251.187 276.182 259.999 281.446 266.174 289.536L262.291 293.611L268.906 299.414L265.743 330.683C265.743 330.683 255.677 293.796 251.262 284.937C251.291 284.86 243.971 277.189 240.75 275.492Z" fill="black"/>
<path d="M222.574 277.082C222.574 277.082 235.516 294.769 232.712 333.677L218.806 305.696L223.235 298.056L212.882 287.639C212.882 287.639 219.568 273.748 223.408 274.813L222.574 277.082Z" fill="#044B9A"/>
<path opacity="0.2" d="M222.574 277.082C222.574 277.082 235.516 294.769 232.712 333.677L218.806 305.696L223.235 298.056L212.882 287.639C212.882 287.639 219.568 273.748 223.408 274.813L222.574 277.082Z" fill="black"/>
<path d="M223.667 273.963C223.667 273.963 227.578 275.506 240.132 274.503C240.132 274.503 244.877 279.226 246.373 284.18C247.868 289.134 243.094 293.934 235.501 289.597C227.909 285.26 223.667 273.963 223.667 273.963Z" fill="#044B9A"/>
<path opacity="0.5" d="M223.667 273.963C223.667 273.963 227.578 275.506 240.132 274.503C240.132 274.503 244.877 279.226 246.373 284.18C247.868 289.134 243.094 293.934 235.501 289.597C227.909 285.26 223.667 273.963 223.667 273.963Z" fill="white"/>
<path d="M249.018 284.166L246.142 302.61L223.537 281.388C228.325 275.724 225.306 260.815 222.99 252.682L229.39 257.837L238.909 265.476C238.73 267.583 238.885 269.707 239.369 271.758C240.088 275.014 241.382 278.07 242.806 278.718L249.018 284.166Z" fill="#E4897B"/>
<path opacity="0.2" d="M239.369 271.757C235.573 270.846 230.598 266.633 229.792 262.496C229.483 260.976 229.348 259.421 229.39 257.866L238.909 265.506C238.733 267.602 238.889 269.716 239.369 271.757Z" fill="black"/>
<path d="M223.666 273.963C231.731 282.497 239.097 291.761 245.682 301.651C245.682 301.651 247.925 283.131 240.131 274.503L241.929 274.272C248.219 278.697 253.832 284.143 258.567 290.415L251.075 287.869L245.898 302.747L230.511 289.073L220.143 291.002C220.143 291.002 219.669 277.266 223.666 273.963Z" fill="#044B9A"/>
<path opacity="0.7" d="M223.666 273.963C231.731 282.497 239.097 291.761 245.682 301.651C245.682 301.651 247.925 283.131 240.131 274.503L241.929 274.272C248.219 278.697 253.832 284.143 258.567 290.415L251.075 287.869L245.898 302.747L230.511 289.073L220.143 291.002C220.143 291.002 219.669 277.266 223.666 273.963Z" fill="white"/>
<path d="M215.944 236.474C218.677 249.624 219.583 255.242 226.816 261.323C237.701 270.49 252.081 264.903 253.045 251.368C253.908 239.175 249.292 219.729 236.436 215.87C233.709 214.931 230.798 214.79 228.003 215.464C225.209 216.138 222.634 217.602 220.544 219.703C218.454 221.805 216.925 224.468 216.116 227.417C215.308 230.366 215.248 233.493 215.944 236.474Z" fill="#E4897B"/>
<path d="M231.763 238.112C231.949 239.223 232.64 240.057 233.301 239.979C233.963 239.902 234.365 238.945 234.178 237.834C233.991 236.723 233.301 235.874 232.625 235.951C231.949 236.028 231.518 237.001 231.763 238.112Z" fill="#263238"/>
<path d="M244.69 236.135C244.877 237.247 245.567 238.08 246.229 238.003C246.89 237.926 247.293 236.969 247.106 235.842C246.919 234.716 246.229 233.898 245.567 233.975C244.906 234.052 244.46 235.055 244.69 236.135Z" fill="#263238"/>
<path d="M245.279 234.114L247.595 233.064C247.595 233.064 246.689 235.287 245.279 234.114Z" fill="#263238"/>
<path d="M241.138 239.081C242.471 241.52 244.09 243.766 245.955 245.764C245.491 246.231 244.934 246.579 244.326 246.783C243.719 246.986 243.076 247.038 242.447 246.937L241.138 239.081Z" fill="#DE5753"/>
<path d="M232.654 227.524C232.496 227.569 232.362 227.68 232.28 227.832C231.951 228.55 231.461 229.169 230.853 229.632C230.246 230.096 229.54 230.39 228.8 230.487C228.722 230.49 228.646 230.511 228.577 230.548C228.507 230.585 228.445 230.637 228.395 230.701C228.345 230.765 228.308 230.839 228.286 230.919C228.264 230.999 228.258 231.083 228.268 231.166C228.286 231.342 228.366 231.504 228.492 231.619C228.617 231.733 228.779 231.792 228.944 231.783C229.886 231.68 230.789 231.323 231.568 230.746C232.347 230.169 232.978 229.389 233.402 228.481C233.467 228.322 233.474 228.143 233.421 227.979C233.367 227.816 233.258 227.68 233.114 227.601C232.975 227.516 232.811 227.489 232.654 227.524Z" fill="#263238"/>
<path d="M244.201 224.498C244.126 224.49 244.051 224.498 243.979 224.522C243.908 224.546 243.841 224.585 243.784 224.637C243.671 224.761 243.609 224.927 243.609 225.1C243.609 225.273 243.671 225.439 243.784 225.563C244.409 226.387 245.202 227.045 246.102 227.487C247.003 227.929 247.986 228.142 248.975 228.11C249.053 228.102 249.129 228.078 249.197 228.037C249.266 227.997 249.326 227.941 249.373 227.874C249.421 227.807 249.455 227.731 249.473 227.649C249.491 227.567 249.493 227.482 249.478 227.4C249.441 227.235 249.348 227.091 249.219 226.994C249.089 226.897 248.931 226.855 248.774 226.875C247.989 226.886 247.213 226.706 246.503 226.347C245.793 225.989 245.168 225.462 244.675 224.807C244.621 224.722 244.551 224.651 244.469 224.598C244.387 224.544 244.296 224.511 244.201 224.498Z" fill="#263238"/>
<path d="M232.352 236.043L234.667 234.993C234.667 234.993 233.761 237.231 232.352 236.043Z" fill="#263238"/>
<path d="M222.229 244.102C222.229 244.102 228.254 234.687 223.667 220.75C223.667 220.75 237.284 213.651 247.595 224.47C247.595 224.47 238.003 206.412 217.958 215.055C197.912 223.698 213.025 244.379 215.513 246.092C218.001 247.806 222.229 244.102 222.229 244.102Z" fill="#263238"/>
<path d="M213.5 247.85C215.107 250.131 217.491 251.635 220.129 252.033C223.523 252.465 224.443 248.792 223.005 245.427C221.567 242.34 218.173 238.497 215.067 239.639C211.961 240.782 211.386 244.964 213.5 247.85Z" fill="#E4897B"/>
<path d="M242.461 253.113C242.405 253.113 242.349 253.101 242.297 253.077C242.245 253.053 242.198 253.018 242.159 252.974C241.173 251.994 239.994 251.265 238.71 250.84C237.425 250.415 236.068 250.306 234.739 250.52C234.685 250.532 234.63 250.531 234.576 250.52C234.523 250.508 234.472 250.485 234.426 250.452C234.381 250.419 234.342 250.377 234.312 250.327C234.281 250.278 234.261 250.223 234.25 250.166C234.233 250.047 234.26 249.926 234.324 249.828C234.389 249.731 234.486 249.663 234.595 249.641C236.06 249.387 237.559 249.5 238.976 249.971C240.393 250.443 241.689 251.259 242.763 252.357C242.841 252.441 242.885 252.555 242.885 252.673C242.885 252.792 242.841 252.906 242.763 252.99C242.724 253.033 242.677 253.066 242.625 253.087C242.573 253.108 242.517 253.117 242.461 253.113Z" fill="#263238"/>
<path opacity="0.2" d="M207.676 324.014C206.986 321.189 206.324 318.411 205.72 315.803C209.028 311.528 210.782 293.208 210.782 293.208C210.782 293.208 213.083 315.541 207.676 324.014Z" fill="black"/>
<path d="M165.456 280.17L152.946 278.38L160.596 265.786C160.596 265.786 171.798 271.111 170.446 277.192L165.456 280.17Z" fill="#E4897B"/>
<path d="M143.211 269.936L153.219 261.509L160.596 265.784L152.946 278.378L143.211 269.936Z" fill="#E4897B"/>
<path d="M162.494 280.277C162.494 280.277 176.874 334.65 188.162 331.363C194.417 329.542 200.4 323.091 205.174 316.392C208.96 311.091 211.434 304.847 212.364 298.242L207.057 272.236C200.328 273.78 189.528 307.487 189.528 307.487L171.424 275.616L162.494 280.277Z" fill="#044B9A"/>
<path d="M228.743 407.08V427.699C245.855 432.993 281.388 430.971 302.512 429.135C307.1 428.731 311.378 426.489 314.495 422.855C317.613 419.22 319.341 414.459 319.337 409.518V392.541C319.339 389.806 318.564 387.134 317.115 384.884C315.666 382.634 313.611 380.912 311.226 379.947C300.988 375.811 282.351 369.653 262.852 369.977C253.759 370.091 245.075 374.052 238.688 381C232.301 387.947 228.727 397.32 228.743 407.08Z" fill="#263238"/>
<path d="M317.539 466.701C311.313 484.759 304.123 507.369 296.444 535.906C296.3 536.431 296.156 536.956 296.027 537.45C295.897 537.944 295.725 538.545 295.581 539.101L287.6 537.095L284.609 536.308C284.609 536.308 284.738 535.042 284.983 532.804C284.983 532.341 285.083 531.847 285.127 531.261C287.269 511.351 295.495 438.288 303.662 423.116C303.662 423.116 294.416 424.953 287.399 423.688C282.351 422.777 276.225 385.242 276.225 385.242C284.753 382.754 293.533 381.401 302.368 381.214H302.555C302.555 381.214 332.149 386.199 337.067 394.008C343.193 403.624 333.702 419.798 317.539 466.701Z" fill="#E4897B"/>
<path d="M307.272 561.402L288.693 552.605L282.826 545.567L281 548.221L278.785 547.187C277.75 538.328 281.747 534.192 283.861 532.309C284.005 532.17 284.221 532.001 284.48 531.8C284.551 531.72 284.634 531.652 284.724 531.599L284.825 531.522L285.112 531.291L285.285 531.183L295.48 536.013C295.48 536.013 295.653 536.584 295.969 537.557C296.99 540.643 299.507 547.666 302.296 551.447C302.411 551.601 302.527 551.771 302.642 551.91C302.957 552.311 303.304 552.683 303.677 553.021C311.557 559.627 307.272 561.402 307.272 561.402Z" fill="#044B9A"/>
<path d="M302.699 551.787C299.823 553.007 295.696 549.92 292.633 545.892C290.727 543.117 289.044 540.174 287.6 537.095C286.905 535.548 286.026 534.106 284.983 532.804C284.551 532.387 284.149 532.218 283.804 532.387C283.947 532.248 284.163 532.079 284.422 531.878C284.495 531.8 284.577 531.733 284.666 531.677L284.767 531.6L285.055 531.369L285.227 531.261C286.291 530.396 287.485 529.517 287.485 529.517L295.681 533.406C295.681 533.406 295.912 534.44 296.329 536.03C297.393 540.104 299.65 547.836 302.239 551.463C302.469 551.479 302.584 551.649 302.699 551.787Z" fill="#E4897B"/>
<path opacity="0.1" d="M317.539 466.701C311.312 484.759 304.122 507.369 296.443 535.906C297.508 539.981 299.765 547.713 302.354 551.34C302.469 551.494 302.584 551.664 302.699 551.803C303.014 552.204 303.361 552.575 303.734 552.914C311.557 559.643 307.272 561.418 307.272 561.418L288.693 552.621L282.826 545.583L280.999 548.238L278.785 547.204C277.749 538.345 281.747 534.209 283.861 532.326C284.005 532.187 284.22 532.017 284.479 531.816C284.551 531.736 284.633 531.669 284.724 531.616L284.824 531.539L285.112 531.307C287.255 511.398 295.48 438.334 303.648 423.163C303.648 423.163 294.402 424.999 287.384 423.734C282.337 422.823 276.211 385.288 276.211 385.288C284.741 382.783 293.526 381.415 302.368 381.214H302.555C302.555 381.214 299.435 381.538 295.192 387.248C295.192 387.248 312.448 390.706 317.179 400.522C319.063 404.534 318.675 433.55 317.539 466.701Z" fill="black"/>
<path d="M276.254 385.228C276.254 385.228 305.862 390.213 310.766 398.007C319.293 411.434 303.935 437.826 275.923 543.084L264.994 540.213C264.994 540.213 267.87 444.678 277.361 427.068C277.361 427.068 268.115 428.905 261.112 427.639C252.139 425.973 246.458 393.778 276.254 385.228Z" fill="#E4897B"/>
<path d="M263.254 560.738H265.685L266.346 557.528L274.37 561.417H294.675C294.675 561.417 297.91 557.929 288.232 555.151C287.759 555.014 287.301 554.822 286.866 554.58C281.704 551.987 274.37 543.221 274.37 543.221H263.226C262.886 543.776 262.579 544.353 262.305 544.949C261.083 547.573 258.984 553.098 263.254 560.738Z" fill="#044B9A"/>
<path d="M262.306 544.952C263.744 543.192 270.473 550.925 275.377 553.564C279.763 555.91 284.681 556.944 286.881 554.552C281.719 551.959 273.608 540.661 273.608 540.661H264.592C264.592 540.661 262.838 543.825 262.306 544.952Z" fill="#E4897B"/>
<g opacity="0.3">
<path d="M455.716 349.546V556.358C455.716 557.012 455.836 557.659 456.07 558.263C456.304 558.867 456.646 559.416 457.077 559.877C457.509 560.339 458.021 560.705 458.585 560.954C459.148 561.203 459.752 561.33 460.361 561.328H550.25C550.481 561.328 550.709 561.279 550.922 561.184C551.135 561.09 551.328 560.951 551.491 560.776C551.654 560.601 551.783 560.394 551.871 560.165C551.959 559.937 552.005 559.692 552.005 559.445V553.271C552.005 552.77 551.82 552.29 551.492 551.934C551.163 551.579 550.717 551.377 550.25 551.373H464.991V354.515H548.798C549.221 354.513 549.639 354.422 550.03 354.246C550.42 354.071 550.774 353.814 551.071 353.492C551.369 353.169 551.605 352.787 551.765 352.367C551.925 351.947 552.007 351.497 552.005 351.043V344.561H460.361C459.75 344.559 459.146 344.686 458.581 344.936C458.017 345.186 457.504 345.553 457.072 346.016C456.641 346.479 456.299 347.03 456.066 347.636C455.833 348.241 455.714 348.89 455.716 349.546Z" fill="white"/>
</g>
<path opacity="0.2" d="M455.716 349.545V402.297C458.803 403.141 461.895 403.954 464.991 404.736V354.514H548.798C549.221 354.512 549.639 354.421 550.03 354.245C550.42 354.07 550.774 353.813 551.071 353.491C551.369 353.168 551.605 352.786 551.765 352.366C551.925 351.946 552.007 351.496 552.005 351.042V344.56H460.361C459.75 344.558 459.146 344.685 458.581 344.935C458.017 345.185 457.504 345.552 457.072 346.015C456.641 346.478 456.299 347.029 456.066 347.635C455.833 348.24 455.714 348.889 455.716 349.545Z" fill="black"/>
<path d="M445.234 330.359L444.083 325.744H397.247L375.677 328.044L374.858 330.359H445.234Z" fill="#263238"/>
<path opacity="0.5" d="M445.234 330.359L444.083 325.744H397.247L375.677 328.044L374.858 330.359H445.234Z" fill="white"/>
<path opacity="0.2" d="M397.248 325.744V330.359H445.234L444.083 325.744H397.248Z" fill="black"/>
<path d="M413.094 295.974C413.016 296.695 413.083 297.424 413.289 298.115C413.495 298.806 413.836 299.441 414.29 299.979C414.743 300.516 415.298 300.944 415.918 301.233C416.537 301.522 417.207 301.665 417.883 301.654H510.102C511.539 301.614 512.913 301.017 513.971 299.973C515.029 298.928 515.698 297.508 515.854 295.974L521.333 232.603C521.393 231.983 521.35 231.355 521.203 230.751C520.949 229.638 520.349 228.651 519.502 227.952C518.655 227.254 517.612 226.886 516.544 226.908H424.354C422.914 226.945 421.536 227.543 420.477 228.591C419.418 229.64 418.752 231.066 418.602 232.603L413.094 295.974Z" fill="#263238"/>
<path opacity="0.5" d="M413.094 295.974C413.016 296.695 413.083 297.424 413.289 298.115C413.495 298.806 413.836 299.441 414.29 299.979C414.743 300.516 415.298 300.944 415.918 301.233C416.537 301.522 417.207 301.665 417.883 301.654H510.102C511.539 301.614 512.913 301.017 513.971 299.973C515.029 298.928 515.698 297.508 515.854 295.974L521.333 232.603C521.393 231.983 521.35 231.355 521.203 230.751C520.949 229.638 520.349 228.651 519.502 227.952C518.655 227.254 517.612 226.886 516.544 226.908H424.354C422.914 226.945 421.536 227.543 420.477 228.591C419.418 229.64 418.752 231.066 418.602 232.603L413.094 295.974Z" fill="white"/>
<path opacity="0.1" d="M418.199 301.653H510.102C511.538 301.613 512.913 301.016 513.971 299.972C515.029 298.927 515.697 297.506 515.854 295.973L521.332 232.602C521.393 231.981 521.349 231.354 521.203 230.75H429.315C427.877 230.793 426.502 231.394 425.444 232.441C424.387 233.488 423.719 234.91 423.563 236.445L418.084 299.801C418.026 300.421 418.065 301.046 418.199 301.653Z" fill="black"/>
<path d="M481.558 262.792H462.49L467.566 321.425L437.397 326.286V330.361H500.942V326.286L487.928 321.425L481.558 262.792Z" fill="#263238"/>
<path opacity="0.5" d="M481.558 262.792H462.49L467.566 321.425L437.397 326.286V330.361H500.942V326.286L487.928 321.425L481.558 262.792Z" fill="white"/>
<path opacity="0.2" d="M462.49 262.792L476.625 329.435L487.928 329.064L481.558 262.792H462.49Z" fill="white"/>
<path d="M328.986 561.419H418.875C419.344 561.419 419.794 561.219 420.126 560.863C420.457 560.507 420.644 560.024 420.644 559.521V553.347C420.644 553.098 420.598 552.851 420.509 552.621C420.42 552.391 420.29 552.181 420.126 552.005C419.961 551.829 419.767 551.689 419.552 551.593C419.337 551.498 419.107 551.449 418.875 551.449H333.616V354.499H417.408C417.831 354.501 418.249 354.413 418.64 354.241C419.031 354.069 419.386 353.816 419.685 353.496C419.984 353.177 420.222 352.796 420.384 352.378C420.546 351.959 420.629 351.51 420.629 351.057V344.56H328.986C327.758 344.56 326.58 345.083 325.711 346.015C324.843 346.947 324.355 348.211 324.355 349.529V556.434C324.355 557.754 324.843 559.019 325.711 559.954C326.579 560.888 327.756 561.415 328.986 561.419Z" fill="#263238"/>
<g opacity="0.4">
<path d="M328.986 561.42H418.875C419.344 561.42 419.794 561.22 420.126 560.864C420.457 560.508 420.644 560.025 420.644 559.522V553.348C420.644 553.099 420.598 552.852 420.509 552.622C420.42 552.392 420.29 552.182 420.126 552.006C419.961 551.83 419.767 551.69 419.552 551.594C419.337 551.499 419.107 551.45 418.875 551.45H333.616V354.5H417.408C417.831 354.502 418.249 354.414 418.64 354.242C419.031 354.07 419.386 353.817 419.685 353.497C419.984 353.178 420.222 352.797 420.384 352.379C420.546 351.96 420.629 351.511 420.629 351.058V344.561H328.986C327.758 344.561 326.58 345.084 325.711 346.016C324.843 346.948 324.355 348.212 324.355 349.53V556.435C324.355 557.755 324.843 559.02 325.711 559.955C326.579 560.889 327.756 561.416 328.986 561.42Z" fill="white"/>
</g>
<path d="M557.441 335.158V343.199C557.423 343.991 557.121 344.745 556.599 345.306C556.077 345.866 555.375 346.189 554.637 346.209H317.266C316.898 346.209 316.535 346.131 316.195 345.979C315.856 345.828 315.548 345.606 315.288 345.326C315.029 345.047 314.824 344.715 314.685 344.35C314.545 343.985 314.474 343.594 314.476 343.199V335.158H557.441Z" fill="#044B9A"/>
<path opacity="0.2" d="M314.476 340.685L557.441 340.685V335.159L314.476 335.159V340.685Z" fill="black"/>
<path d="M565.435 333.478C565.435 334.297 565.132 335.082 564.593 335.661C564.054 336.24 563.322 336.565 562.559 336.565H309.471C309.09 336.567 308.711 336.488 308.358 336.331C308.005 336.175 307.684 335.945 307.415 335.654C307.267 335.5 307.141 335.323 307.041 335.129C306.735 334.63 306.57 334.045 306.567 333.447C306.567 332.628 306.87 331.843 307.409 331.264C307.948 330.686 308.68 330.36 309.443 330.36H562.531C563.293 330.36 564.025 330.686 564.564 331.264C565.104 331.843 565.407 332.628 565.407 333.447L565.435 333.478Z" fill="#044B9A"/>
<path opacity="0.2" d="M432.277 331.271C432.008 330.98 431.688 330.75 431.335 330.594C430.981 330.437 430.603 330.358 430.221 330.36H309.429C308.666 330.36 307.935 330.686 307.395 331.264C306.856 331.843 306.553 332.628 306.553 333.447C306.556 334.045 306.721 334.63 307.028 335.129C307.128 335.323 307.254 335.5 307.401 335.654C307.671 335.945 307.991 336.175 308.344 336.332C308.697 336.488 309.076 336.567 309.458 336.565H314.548V343.17C314.546 343.565 314.617 343.956 314.757 344.321C314.896 344.686 315.101 345.018 315.36 345.298C315.62 345.577 315.928 345.799 316.267 345.951C316.607 346.102 316.97 346.18 317.338 346.18H422.341C422.708 346.18 423.072 346.102 423.412 345.951C423.751 345.799 424.059 345.577 424.319 345.298C424.578 345.018 424.783 344.686 424.922 344.321C425.062 343.956 425.132 343.565 425.131 343.17V336.565H430.221C430.711 336.57 431.194 336.441 431.624 336.19C432.055 335.939 432.418 335.574 432.68 335.129C433.042 334.531 433.2 333.817 433.126 333.108C433.053 332.398 432.753 331.739 432.277 331.24V331.271Z" fill="white"/>
<path d="M455.716 349.545V556.357C455.716 557.011 455.836 557.658 456.07 558.262C456.304 558.866 456.646 559.415 457.077 559.877C457.509 560.338 458.021 560.704 458.585 560.953C459.148 561.202 459.752 561.329 460.361 561.327H550.25C550.481 561.327 550.709 561.278 550.922 561.183C551.135 561.089 551.328 560.95 551.491 560.775C551.654 560.6 551.783 560.393 551.871 560.164C551.959 559.936 552.005 559.691 552.005 559.444V553.27C552.005 552.769 551.82 552.289 551.492 551.933C551.163 551.578 550.717 551.376 550.25 551.372H464.991V354.514H548.798C549.221 354.512 549.639 354.421 550.03 354.245C550.42 354.07 550.774 353.813 551.071 353.491C551.369 353.168 551.605 352.786 551.765 352.366C551.925 351.946 552.007 351.496 552.005 351.042V344.56H460.361C459.75 344.558 459.146 344.685 458.581 344.935C458.017 345.185 457.504 345.552 457.072 346.015C456.641 346.478 456.299 347.029 456.066 347.635C455.833 348.24 455.714 348.889 455.716 349.545Z" fill="#263238"/>
</svg>
